<?xml version="1.0" encoding="UTF-8" standalone="no"?>
<!-- Created with Inkscape (http://www.inkscape.org/) -->

<svg
   xmlns:dc="http://purl.org/dc/elements/1.1/"
   xmlns:cc="http://creativecommons.org/ns#"
   xmlns:rdf="http://www.w3.org/1999/02/22-rdf-syntax-ns#"
   xmlns:svg="http://www.w3.org/2000/svg"
   xmlns="http://www.w3.org/2000/svg"
   xmlns:sodipodi="http://sodipodi.sourceforge.net/DTD/sodipodi-0.dtd"
   xmlns:inkscape="http://www.inkscape.org/namespaces/inkscape"
   width="210mm"
   height="297mm"
   viewBox="0 0 744.09448819 1052.3622047"
   id="svg2"
   version="1.1"
   inkscape:version="0.91 r13725"
   sodipodi:docname="texto.svg">
  <defs
     id="defs4" />
  <sodipodi:namedview
     id="base"
     pagecolor="#ffffff"
     bordercolor="#666666"
     borderopacity="1.0"
     inkscape:pageopacity="0.0"
     inkscape:pageshadow="2"
     inkscape:zoom="0.70000001"
     inkscape:cx="-78.752006"
     inkscape:cy="558.93449"
     inkscape:document-units="px"
     inkscape:current-layer="text8082"
     showgrid="false"
     inkscape:window-width="1920"
     inkscape:window-height="1017"
     inkscape:window-x="-8"
     inkscape:window-y="-8"
     inkscape:window-maximized="1" />
  <metadata
     id="metadata7">
    <rdf:RDF>
      <cc:Work
         rdf:about="">
        <dc:format>image/svg+xml</dc:format>
        <dc:type
           rdf:resource="http://purl.org/dc/dcmitype/StillImage" />
        <dc:title />
      </cc:Work>
    </rdf:RDF>
  </metadata>
  <g
     inkscape:label="Capa 1"
     inkscape:groupmode="layer"
     id="layer1">
    <g
       style="font-style:normal;font-weight:normal;font-size:22.5px;line-height:125%;font-family:sans-serif;text-align:center;letter-spacing:0px;word-spacing:0px;text-anchor:middle;fill:#000000;fill-opacity:1;stroke:none;stroke-width:1px;stroke-linecap:butt;stroke-linejoin:miter;stroke-opacity:1"
       id="text8068">
      <g
         style="font-style:normal;font-variant:normal;font-weight:bold;font-stretch:normal;font-size:22.5px;line-height:125%;font-family:sans-serif;-inkscape-font-specification:'sans-serif Bold';text-align:center;letter-spacing:0px;word-spacing:0px;text-anchor:middle;fill:#000000;fill-opacity:1;stroke:none;stroke-width:1px;stroke-linecap:butt;stroke-linejoin:miter;stroke-opacity:1"
         id="text8105"
         transform="matrix(2.8661185,0,0,2.8661185,-341.34809,-923.53046)">
        <g
           style="font-style:normal;font-variant:normal;font-weight:bold;font-stretch:normal;font-size:15.70067692px;line-height:125%;font-family:sans-serif;-inkscape-font-specification:'sans-serif Bold';text-align:center;letter-spacing:0px;word-spacing:0px;text-anchor:middle;fill:#000000;fill-opacity:1;stroke:none;stroke-width:1px;stroke-linecap:butt;stroke-linejoin:miter;stroke-opacity:1"
           id="text8078">
          <g
             style="font-style:normal;font-weight:normal;font-size:15.70067692px;line-height:125%;font-family:sans-serif;text-align:center;letter-spacing:0px;word-spacing:0px;text-anchor:middle;fill:#000000;fill-opacity:1;stroke:none;stroke-width:1px;stroke-linecap:butt;stroke-linejoin:miter;stroke-opacity:1"
             id="text8081">
            <g
               style="font-style:normal;font-weight:normal;font-size:15.70067692px;line-height:125%;font-family:sans-serif;text-align:center;letter-spacing:0px;word-spacing:0px;text-anchor:middle;fill:#000000;fill-opacity:1;stroke:none;stroke-width:1px;stroke-linecap:butt;stroke-linejoin:miter;stroke-opacity:1"
               id="text8079">
              <g
                 style="font-style:normal;font-weight:normal;font-size:15.70067692px;line-height:125%;font-family:sans-serif;text-align:center;letter-spacing:0px;word-spacing:0px;text-anchor:middle;fill:#000000;fill-opacity:1;stroke:none;stroke-width:1px;stroke-linecap:butt;stroke-linejoin:miter;stroke-opacity:1"
                 id="text8082">
                <path
                   d="m 186.79895,468.47037 0,2.42257 q -0.94296,-0.42165 -1.83992,-0.63631 -0.89697,-0.21466 -1.69427,-0.21466 -1.05795,0 -1.56393,0.29132 -0.50598,0.29132 -0.50598,0.90463 0,0.45998 0.33732,0.72064 0.34499,0.25299 1.24195,0.43698 l 1.25728,0.25299 q 1.90892,0.38332 2.71389,1.16528 0.80496,0.78197 0.80496,2.22325 0,1.89358 -1.12695,2.82121 -1.11929,0.91996 -3.42686,0.91996 -1.08862,0 -2.18491,-0.20699 -1.09628,-0.20699 -2.19257,-0.61331 l 0,-2.49156 q 1.09629,0.58264 2.11591,0.88163 1.02729,0.29132 1.97792,0.29132 0.96596,0 1.4796,-0.32198 0.51365,-0.32199 0.51365,-0.91997 0,-0.53664 -0.35265,-0.82796 -0.34499,-0.29132 -1.38761,-0.52131 l -1.14229,-0.25299 q -1.71726,-0.36799 -2.51456,-1.17295 -0.78963,-0.80497 -0.78963,-2.16958 0,-1.70959 1.10395,-2.62956 1.10395,-0.91996 3.17387,-0.91996 0.94296,0 1.93958,0.14566 0.99663,0.138 2.06225,0.42165 z"
                   style="font-style:normal;font-variant:normal;font-weight:bold;font-stretch:normal;font-family:sans-serif;-inkscape-font-specification:'sans-serif Bold'"
                   id="path8087" />
                <path
                   d="m 195.37759,470.04197 q -1.34928,0 -2.09291,0.99663 -0.74364,0.99662 -0.74364,2.80588 0,1.80159 0.74364,2.79822 0.74363,0.99662 2.09291,0.99662 1.35694,0 2.10058,-0.99662 0.74364,-0.99663 0.74364,-2.79822 0,-1.80926 -0.74364,-2.80588 -0.74364,-0.99663 -2.10058,-0.99663 z m 0,-2.13891 q 2.75989,0 4.32382,1.57927 1.56394,1.57927 1.56394,4.36215 0,2.77522 -1.56394,4.35448 -1.56393,1.57927 -4.32382,1.57927 -2.75222,0 -4.32382,-1.57927 -1.56393,-1.57926 -1.56393,-4.35448 0,-2.78288 1.56393,-4.36215 1.5716,-1.57927 4.32382,-1.57927 z"
                   style="font-style:normal;font-variant:normal;font-weight:bold;font-stretch:normal;font-family:sans-serif;-inkscape-font-specification:'sans-serif Bold'"
                   id="path8089" />
                <path
                   d="m 203.48858,468.11005 2.95155,0 0,11.44586 -2.95155,0 0,-11.44586 z"
                   style="font-style:normal;font-variant:normal;font-weight:bold;font-stretch:normal;font-family:sans-serif;-inkscape-font-specification:'sans-serif Bold'"
                   id="path8091" />
                <path
                   d="m 217.31101,468.47037 0,2.42257 q -0.94296,-0.42165 -1.83992,-0.63631 -0.89697,-0.21466 -1.69427,-0.21466 -1.05795,0 -1.56393,0.29132 -0.50598,0.29132 -0.50598,0.90463 0,0.45998 0.33732,0.72064 0.34498,0.25299 1.24195,0.43698 l 1.25728,0.25299 q 1.90892,0.38332 2.71388,1.16528 0.80497,0.78197 0.80497,2.22325 0,1.89358 -1.12695,2.82121 -1.11929,0.91996 -3.42686,0.91996 -1.08862,0 -2.18491,-0.20699 -1.09629,-0.20699 -2.19257,-0.61331 l 0,-2.49156 q 1.09628,0.58264 2.11591,0.88163 1.02729,0.29132 1.97792,0.29132 0.96596,0 1.4796,-0.32198 0.51365,-0.32199 0.51365,-0.91997 0,-0.53664 -0.35266,-0.82796 -0.34498,-0.29132 -1.3876,-0.52131 l -1.14229,-0.25299 q -1.71726,-0.36799 -2.51456,-1.17295 -0.78964,-0.80497 -0.78964,-2.16958 0,-1.70959 1.10396,-2.62956 1.10395,-0.91996 3.17387,-0.91996 0.94296,0 1.93958,0.14566 0.99663,0.138 2.06225,0.42165 z"
                   style="font-style:normal;font-variant:normal;font-weight:bold;font-stretch:normal;font-family:sans-serif;-inkscape-font-specification:'sans-serif Bold'"
                   id="path8093" />
                <path
                   d="m 236.40788,478.70494 q -1.10396,0.53665 -2.29224,0.80497 -1.18829,0.26832 -2.45323,0.26832 -2.85955,0 -4.53081,-1.5946 -1.67127,-1.60226 -1.67127,-4.33915 0,-2.76755 1.70193,-4.35448 1.70193,-1.58694 4.66114,-1.58694 1.14229,0 2.18491,0.21466 1.05029,0.21466 1.97792,0.63631 l 0,2.3689 q -0.9583,-0.54431 -1.90892,-0.81264 -0.94296,-0.26832 -1.89359,-0.26832 -1.76326,0 -2.72155,0.98896 -0.95063,0.98129 -0.95063,2.81355 0,1.81692 0.91996,2.80588 0.91996,0.98896 2.61422,0.98896 0.45999,0 0.85097,-0.0537 0.39865,-0.0613 0.71297,-0.184 l 0,-2.22324 -1.80159,0 0,-1.97791 4.59981,0 0,5.50443 z"
                   style="font-style:normal;font-variant:normal;font-weight:bold;font-stretch:normal;font-family:sans-serif;-inkscape-font-specification:'sans-serif Bold'"
                   id="path8095" />
                <path
                   d="m 243.19259,473.18517 q 0.92763,0 1.32628,-0.34498 0.40632,-0.34499 0.40632,-1.13462 0,-0.78197 -0.40632,-1.11929 -0.39865,-0.33732 -1.32628,-0.33732 l -1.24194,0 0,2.93621 1.24194,0 z m -1.24194,2.03925 0,4.33149 -2.95155,0 0,-11.44586 4.50781,0 q 2.26158,0 3.31187,0.75897 1.05795,0.75897 1.05795,2.39957 0,1.13462 -0.55198,1.86292 -0.54431,0.7283 -1.64826,1.07329 0.60564,0.13799 1.08095,0.62864 0.48298,0.48298 0.97363,1.47194 l 1.60227,3.25053 -3.14321,0 -1.39527,-2.84422 q -0.42165,-0.85863 -0.85863,-1.17295 -0.42932,-0.31432 -1.14995,-0.31432 l -0.83563,0 z"
                   style="font-style:normal;font-variant:normal;font-weight:bold;font-stretch:normal;font-family:sans-serif;-inkscape-font-specification:'sans-serif Bold'"
                   id="path8097" />
                <path
                   d="m 258.02698,477.47066 -4.61514,0 -0.72831,2.08525 -2.96687,0 4.23949,-11.44586 3.51885,0 4.23949,11.44586 -2.96688,0 -0.72063,-2.08525 z m -3.87917,-2.12358 3.13553,0 -1.56393,-4.55381 -1.5716,4.55381 z"
                   style="font-style:normal;font-variant:normal;font-weight:bold;font-stretch:normal;font-family:sans-serif;-inkscape-font-specification:'sans-serif Bold'"
                   id="path8099" />
                <path
                   d="m 263.22475,468.11005 3.29653,0 4.16283,7.85034 0,-7.85034 2.79821,0 0,11.44586 -3.29652,0 -4.16283,-7.85034 0,7.85034 -2.79822,0 0,-11.44586 z"
                   style="font-style:normal;font-variant:normal;font-weight:bold;font-stretch:normal;font-family:sans-serif;-inkscape-font-specification:'sans-serif Bold'"
                   id="path8101" />
                <path
                   d="m 279.33175,470.34096 0,6.98404 1.05795,0 q 1.80926,0 2.75989,-0.89696 0.95829,-0.89696 0.95829,-2.60656 0,-1.70193 -0.95063,-2.59122 -0.95063,-0.8893 -2.76755,-0.8893 l -1.05795,0 z m -2.95155,-2.23091 3.11254,0 q 2.60656,0 3.87917,0.37565 1.28028,0.36799 2.19257,1.25729 0.80497,0.7743 1.19595,1.78625 0.39099,1.01196 0.39099,2.29224 0,1.29561 -0.39099,2.31524 -0.39098,1.01196 -1.19595,1.78626 -0.91996,0.88929 -2.2079,1.26494 -1.28795,0.36799 -3.86384,0.36799 l -3.11254,0 0,-11.44586 z"
                   style="font-style:normal;font-variant:normal;font-weight:bold;font-stretch:normal;font-family:sans-serif;-inkscape-font-specification:'sans-serif Bold'"
                   id="path8103" />
                <path
                   d="m 289.41299,468.11005 7.96534,0 0,2.23091 -5.01379,0 0,2.13124 4.7148,0 0,2.23091 -4.7148,0 0,2.62189 5.18245,0 0,2.23091 -8.134,0 0,-11.44586 z"
                   style="font-style:normal;font-variant:normal;font-weight:bold;font-stretch:normal;font-family:sans-serif;-inkscape-font-specification:'sans-serif Bold'"
                   id="path8105" />
                <path
                   d="m 308.11121,468.47037 0,2.42257 q -0.94296,-0.42165 -1.83992,-0.63631 -0.89696,-0.21466 -1.69426,-0.21466 -1.05796,0 -1.56394,0.29132 -0.50598,0.29132 -0.50598,0.90463 0,0.45998 0.33732,0.72064 0.34499,0.25299 1.24195,0.43698 l 1.25728,0.25299 q 1.90892,0.38332 2.71389,1.16528 0.80497,0.78197 0.80497,2.22325 0,1.89358 -1.12696,2.82121 -1.11928,0.91996 -3.42685,0.91996 -1.08863,0 -2.18491,-0.20699 -1.09629,-0.20699 -2.19258,-0.61331 l 0,-2.49156 q 1.09629,0.58264 2.11591,0.88163 1.02729,0.29132 1.97792,0.29132 0.96596,0 1.47961,-0.32198 0.51364,-0.32199 0.51364,-0.91997 0,-0.53664 -0.35265,-0.82796 -0.34499,-0.29132 -1.38761,-0.52131 l -1.14228,-0.25299 q -1.71727,-0.36799 -2.51457,-1.17295 -0.78963,-0.80497 -0.78963,-2.16958 0,-1.70959 1.10395,-2.62956 1.10396,-0.91996 3.17387,-0.91996 0.94296,0 1.93959,0.14566 0.99662,0.138 2.06224,0.42165 z"
                   style="font-style:normal;font-variant:normal;font-weight:bold;font-stretch:normal;font-family:sans-serif;-inkscape-font-specification:'sans-serif Bold'"
                   id="path8107" />
              </g>
            </g>
          </g>
        </g>
      </g>
    </g>
  </g>
</svg>
